<?xml version="1.0" encoding="UTF-8" standalone="no"?>
<!-- Created with Inkscape (http://www.inkscape.org/) -->

<svg
   xmlns:dc="http://purl.org/dc/elements/1.1/"
   xmlns:cc="http://creativecommons.org/ns#"
   xmlns:rdf="http://www.w3.org/1999/02/22-rdf-syntax-ns#"
   xmlns:svg="http://www.w3.org/2000/svg"
   xmlns="http://www.w3.org/2000/svg"
   xmlns:sodipodi="http://sodipodi.sourceforge.net/DTD/sodipodi-0.dtd"
   xmlns:inkscape="http://www.inkscape.org/namespaces/inkscape"
   width="25mm"
   height="25mm"
   viewBox="0 0 25 25"
   version="1.1"
   id="svg8"
   inkscape:version="0.92.1 r"
   sodipodi:docname="zerolog-logo.svg"
   inkscape:export-filename="/Users/emil.koutanov/code/zerolog.wiki/images/zerolog-logo.png"
   inkscape:export-xdpi="244.56"
   inkscape:export-ydpi="244.56">
  <defs
     id="defs2" />
  <sodipodi:namedview
     id="base"
     pagecolor="#ffffff"
     bordercolor="#666666"
     borderopacity="1.0"
     inkscape:pageopacity="0.0"
     inkscape:pageshadow="2"
     inkscape:zoom="2.1588064"
     inkscape:cx="3.7571695"
     inkscape:cy="49.123726"
     inkscape:document-units="mm"
     inkscape:current-layer="layer1"
     showgrid="false"
     inkscape:window-width="1239"
     inkscape:window-height="756"
     inkscape:window-x="41"
     inkscape:window-y="22"
     inkscape:window-maximized="0"
     fit-margin-top="0"
     fit-margin-left="0"
     fit-margin-right="0"
     fit-margin-bottom="0"
     showguides="true"
     inkscape:snap-grids="true"
     inkscape:object-nodes="true" />
  <metadata
     id="metadata5">
    <rdf:RDF>
      <cc:Work
         rdf:about="">
        <dc:format>image/svg+xml</dc:format>
        <dc:type
           rdf:resource="http://purl.org/dc/dcmitype/StillImage" />
        <dc:title />
      </cc:Work>
    </rdf:RDF>
  </metadata>
  <g
     inkscape:label="Layer 1"
     inkscape:groupmode="layer"
     id="layer1"
     transform="translate(-5.2582855,-3.9856467)">
    <path
       style="opacity:1;fill:#0093f7;fill-opacity:0.86274511;stroke:none;stroke-width:30.44993973;stroke-linecap:round;stroke-linejoin:miter;stroke-miterlimit:4;stroke-dasharray:none;stroke-opacity:0.24313725"
       d="M 17.876537,4.3749107 A 12.141546,12.141546 0 0 0 9.8569545,7.414189 l 2.5799995,2.5855229 a 8.503516,8.503516 0 0 1 5.365294,-1.9119117 8.503516,8.503516 0 0 1 8.503459,8.5034568 8.503516,8.503516 0 0 1 -1.925463,5.380354 l 2.576487,2.582509 A 12.141546,12.141546 0 0 0 30.018095,16.51647 12.141546,12.141546 0 0 0 17.876537,4.3749107 Z"
       id="path5916"
       inkscape:connector-curvature="0" />
    <path
       style="opacity:1;fill:#00f0fe;fill-opacity:0.86274511;stroke:none;stroke-width:30.44993973;stroke-linecap:round;stroke-linejoin:miter;stroke-miterlimit:4;stroke-dasharray:none;stroke-opacity:0.24313725"
       d="M 8.4620479,8.8592907 A 12.141546,12.141546 0 0 0 5.734978,16.51647 12.141546,12.141546 0 0 0 17.876537,28.658027 12.141546,12.141546 0 0 0 25.509119,25.947019 l -2.576988,-2.583011 a 8.503516,8.503516 0 0 1 -5.129883,1.730707 8.503516,8.503516 0 0 1 -8.503959,-8.503458 8.503516,8.503516 0 0 1 1.745766,-5.143935 z"
       id="path5818-54"
       inkscape:connector-curvature="0" />
    <path
       style="opacity:1;fill:#cb00e8;fill-opacity:0.86274511;stroke:none;stroke-width:17.08657646;stroke-linecap:round;stroke-linejoin:miter;stroke-miterlimit:4;stroke-dasharray:none;stroke-opacity:0.24313725"
       d="M 22.594122,11.793871 A 6.8130664,6.8130664 0 0 0 18.707749,9.8757273 l 1.24e-4,3.5327217 a 3.327031,3.327031 0 0 1 1.41855,0.835076 3.327031,3.327031 0 0 1 0.0055,4.705183 3.327031,3.327031 0 0 1 -1.423648,0.843797 l 4.95e-4,3.569543 a 6.8130664,6.8130664 0 0 0 3.897259,-1.932963 6.8130664,6.8130664 0 0 0 -0.01189,-9.635214 z"
       id="path5920"
       inkscape:connector-curvature="0" />
    <path
       style="opacity:1;fill:#401df3;fill-opacity:0.86274511;stroke:none;stroke-width:17.08657646;stroke-linecap:round;stroke-linejoin:miter;stroke-miterlimit:4;stroke-dasharray:none;stroke-opacity:0.24313725"
       d="m 16.863664,9.8718115 a 6.8130664,6.8130664 0 0 0 -3.905082,1.9336255 6.8130664,6.8130664 0 0 0 0.0119,9.635865 6.8130664,6.8130664 0 0 0 3.893542,1.918787 l -1.63e-4,-3.565308 a 3.327031,3.327031 0 0 1 -1.436806,-0.840267 3.327031,3.327031 0 0 1 -0.0062,-4.705182 3.327031,3.327031 0 0 1 1.442869,-0.848057 z"
       id="path5818-5-4-7"
       inkscape:connector-curvature="0" />
  </g>
</svg>
